<?xml version="1.0" encoding="utf-8"?>
<!-- Generator: Adobe Illustrator 25.3.1, SVG Export Plug-In . SVG Version: 6.00 Build 0)  -->
<svg version="1.1" id="圖層_1" xmlns="http://www.w3.org/2000/svg" xmlns:xlink="http://www.w3.org/1999/xlink" x="0px" y="0px"
	 viewBox="0 0 221 171.66" style="enable-background:new 0 0 221 171.66;" xml:space="preserve">
<style type="text/css">
	.st0{fill:#1E7EAF;}
	.st1{fill:#EEF8FD;}
	.st2{fill:#16527D;}
	.st3{fill:#F3961A;}
	.st4{fill:#49AF73;}
	.st5{fill:none;stroke:#FFFFFF;stroke-width:5.6693;stroke-linecap:round;stroke-linejoin:round;stroke-miterlimit:10;}
	.st6{fill:#89C5DC;}
</style>
<g>
	<path class="st0" d="M116.43,1.99c-5.28-2.71-11.56-2.65-16.78,0.16L0,55.66v116h221v-116L116.43,1.99z"/>
	<path class="st1" d="M188.37,163.42H32.63c-4.92,0-8.91-3.99-8.91-8.91V20.37c0-4.92,3.99-8.91,8.91-8.91h155.75
		c4.92,0,8.91,3.99,8.91,8.91v134.15C197.28,159.43,193.29,163.42,188.37,163.42z"/>
	<path class="st2" d="M221,171.66H0v-116l83.92,50.77c16.34,9.89,36.82,9.89,53.16,0L221,55.66V171.66z"/>
	<path class="st3" d="M202.92,130.98h-5.13c-0.3,0-0.6,0.15-0.74,0.45l-5.36,10.57l-2.16-10.57c-0.07-0.3-0.37-0.45-0.67-0.45h-5.17
		c-0.41,0-0.63,0.22-0.52,0.63l4.36,17.12l0.1,0.4l-1.15,2.14c-0.26,0.48-0.76,0.78-1.3,0.78h-1.16h-5.88v-1.63
		c0-0.25-0.25-0.43-0.49-0.35l-7.14,3.77c-0.33,0.12-0.33,0.58,0,0.7l7.14,3.77c0.24,0.08,0.49-0.09,0.49-0.35v-1.7h6.28
		c0.04,0.01,0.08,0.01,0.13,0.01h3.23c0.08,0,0.16,0,0.24-0.01c0.94-0.06,1.79-0.47,2.42-1.09c0.16-0.16,0.31-0.34,0.44-0.53
		c0.16-0.23,0.29-0.47,0.4-0.74l12.06-22.31C203.55,131.2,203.33,130.98,202.92,130.98z"/>
	<g>
		<circle class="st4" cx="110.5" cy="78.52" r="27.41"/>
		<polyline class="st5" points="94.93,80.8 104.97,90.37 125.29,71.04 		"/>
	</g>
	<rect x="35.29" y="24.68" class="st6" width="52.88" height="6.74"/>
	<rect x="35.29" y="36.62" class="st6" width="43.45" height="6.74"/>
</g>
</svg>
