<?xml version="1.0" encoding="utf-8"?>
<!-- Generator: Adobe Illustrator 25.3.1, SVG Export Plug-In . SVG Version: 6.00 Build 0)  -->
<svg version="1.1" id="圖層_1" xmlns="http://www.w3.org/2000/svg" xmlns:xlink="http://www.w3.org/1999/xlink" x="0px" y="0px"
	 viewBox="0 0 46 38" style="enable-background:new 0 0 46 38;" xml:space="preserve">
<style type="text/css">
	.st0{fill:#FF9900;}
</style>
<path class="st0" d="M45.05,0.24h-7.04c-0.41,0-0.82,0.2-1.02,0.61l-7.35,14.49L26.68,0.85c-0.1-0.41-0.51-0.61-0.92-0.61h-7.09
	c-0.56,0-0.87,0.31-0.71,0.87l5.98,23.48l0.14,0.55l-1.58,2.93c-0.35,0.66-1.04,1.07-1.79,1.07h-1.58h-8.06V26.9
	c0-0.35-0.34-0.59-0.67-0.48L0.61,31.6c-0.45,0.16-0.45,0.8,0,0.96l9.78,5.18c0.33,0.11,0.67-0.13,0.67-0.48v-2.33h8.6
	c0.05,0.01,0.11,0.01,0.17,0.01h4.42c0.11,0,0.22,0,0.33-0.01c1.29-0.08,2.46-0.64,3.32-1.5c0.22-0.22,0.42-0.46,0.6-0.72
	c0.22-0.31,0.4-0.65,0.54-1.01L45.61,1.11C45.92,0.55,45.61,0.24,45.05,0.24z"/>
</svg>
