<?xml version="1.0" encoding="utf-8"?>
<!-- Generator: Adobe Illustrator 25.3.1, SVG Export Plug-In . SVG Version: 6.00 Build 0)  -->
<svg version="1.1" id="圖層_1" xmlns="http://www.w3.org/2000/svg" xmlns:xlink="http://www.w3.org/1999/xlink" x="0px" y="0px"
	 viewBox="0 0 126 49" style="enable-background:new 0 0 126 49;" xml:space="preserve">
<style type="text/css">
	.st0{fill:#FF9900;}
</style>
<g>
	<path class="st0" d="M44.78,11.48h-7.04c-0.41,0-0.82,0.2-1.02,0.61l-7.35,14.49l-2.96-14.49c-0.1-0.41-0.51-0.61-0.92-0.61H18.4
		c-0.56,0-0.87,0.31-0.71,0.87l5.98,23.48l0.14,0.55l-1.58,2.93c-0.35,0.66-1.04,1.07-1.79,1.07h-1.58H10.8v-2.23
		c0-0.35-0.34-0.59-0.67-0.48l-9.78,5.18c-0.45,0.16-0.45,0.8,0,0.96l9.78,5.18c0.33,0.11,0.67-0.13,0.67-0.48v-2.33h8.6
		c0.05,0.01,0.11,0.01,0.17,0.01H24c0.11,0,0.22,0,0.33-0.01c1.29-0.08,2.46-0.64,3.32-1.5c0.22-0.22,0.42-0.46,0.6-0.72
		c0.22-0.31,0.4-0.65,0.54-1.01l16.54-30.59C45.64,11.78,45.34,11.48,44.78,11.48z"/>
	<path class="st0" d="M72.48,11.48h-6.33c-0.46,0-0.82,0.36-0.92,0.82l-0.46,1.99c-1.28-2.14-3.47-3.42-6.89-3.42
		c-8.11,0-13.57,7.3-13.57,15.31c0,6.43,3.37,10.92,9.8,10.92c3.42,0,6.07-1.33,7.96-3.52l-0.15,2.09
		c-0.05,0.46,0.31,0.82,0.77,0.82h6.22c0.46,0,0.92-0.36,1.02-0.82L73.2,12.3C73.3,11.84,72.94,11.48,72.48,11.48z M63.04,23.93
		c-0.41,3.27-2.86,5.41-5.97,5.41c-2.65,0-4.34-1.79-4.34-4.54c0-3.16,2.3-6.17,5.97-6.17C61.72,18.62,63.5,20.71,63.04,23.93z"/>
	<path class="st0" d="M92.38,10.87c-2.86,0-4.85,2.04-5.87,5.25l0.31-3.83c0.05-0.46-0.26-0.82-0.71-0.82h-6.68
		c-0.46,0-0.87,0.36-0.92,0.82l-3.27,23.37c-0.05,0.46,0.26,0.82,0.71,0.82h6.99c0.46,0,0.87-0.36,0.92-0.82l1.48-11.33
		C86,20,88.4,18.72,91.05,18.72c0.77,0,1.43,0.1,1.94,0.26c0.87,0.2,1.22-0.1,1.33-0.71l0.77-5.61c0-0.46,0.05-0.71-0.36-1.07
		C94.37,11.22,93.6,10.87,92.38,10.87z"/>
	<path class="st0" d="M125.28,0h-7.04c-0.46,0-0.87,0.36-0.92,0.82l-1.58,13.11c-1.33-1.94-3.47-3.06-6.68-3.06
		c-8.11,0-13.57,7.3-13.57,15.31c0,6.43,3.37,10.92,9.8,10.92c3.42,0,6.07-1.33,7.96-3.52l-0.15,2.09
		c-0.05,0.46,0.31,0.82,0.77,0.82h6.22c0.46,0,0.92-0.36,1.02-0.82L126,0.82C126.05,0.36,125.74,0,125.28,0z M114.21,23.93
		c-0.41,3.27-2.86,5.41-5.97,5.41c-2.65,0-4.34-1.79-4.34-4.54c0-3.16,2.3-6.17,5.97-6.17C112.89,18.62,114.67,20.71,114.21,23.93z"
		/>
</g>
</svg>
